<svg width="40" height="40" xmlns="http://www.w3.org/2000/svg" fill="none">
    <g id="Layer_1">
        <title>Layer 1</title>
        <path id="svg_1" d="m16.13158,35.56149c-4.58184,-1.73437 -7.86595,-7.24531 -7.1196,-11.94713c0.47062,-2.96486 10.3996,-20.96361 11.26671,-20.42375c0.28301,0.1762 2.80149,4.37247 5.59661,9.32503c4.47749,7.93349 5.08203,9.41284 5.08203,12.43598c0,6.12777 -4.86823,11.14711 -10.71355,11.0461c-1.70575,-0.02948 -3.55624,-0.22579 -4.1122,-0.43623l0,0zm4.59048,-3.08204c0.15166,-0.79333 -0.20261,-1.18023 -1.0807,-1.18023c-2.00126,0 -4.77734,-2.55336 -5.39756,-4.96453c-0.6616,-2.57206 -2.41581,-2.87795 -2.67492,-0.46644c-0.4992,4.64612 8.31217,11.01043 9.15317,6.6112l0,0z" stroke="#000" fill="url(#svg_12)"/>
    </g>
    <defs>
        <linearGradient y2="0" x2="1" y1="0" x1="0" id="svg_12">
            <stop offset="0.01953" stop-opacity="0.99609" stop-color="#77ef77"/>
            <stop offset="0.71875" stop-opacity="0.99219" stop-color="#767cf2"/>
        </linearGradient>
    </defs>
</svg>