<?xml version="1.0" standalone="no"?><!DOCTYPE svg PUBLIC "-//W3C//DTD SVG 1.1//EN" "http://www.w3.org/Graphics/SVG/1.1/DTD/svg11.dtd"><svg class="icon" width="16px" height="16.00px" viewBox="0 0 1024 1024" version="1.1" xmlns="http://www.w3.org/2000/svg"><path fill="#8a8a8a" d="M513.33307 1023.893344C241.432598 1025.457625-0.142154 808.840265 0.177813 514.435479 0.497779 214.697917 238.37514-0.319611 515.430628 0.000356c280.859535 0.319967 508.640173 234.642143 508.391311 512.728634-0.319967 275.491207-229.984852 513.226361-510.488869 511.164354z m-0.248863-88.879599c231.086959 2.950803 422.818032-196.495019 422.142547-424.52452-0.675485-224.687628-185.971674-422.320306-421.538166-422.178099C283.810391 88.879955 87.919753 270.443202 88.595238 515.822001c0.639933 240.259334 200.405721 421.858132 424.488969 419.440607z"  /><path fill="#8a8a8a" d="M511.306615 173.457782c97.483145 0 184.691808 78.498462 195.926189 174.204016 7.288127 62.037961-16.531606 111.597225-56.882943 155.432644-17.029331 18.629164-34.911907 36.618395-53.612175 53.505519-29.650234 26.770535-43.195485 59.442676-41.951171 99.189633a42.413345 42.413345 0 0 1-29.116957 43.08883c-30.930101 10.665552-59.051606-13.687458-59.371573-47.852776-0.711037-68.899466 28.192609-122.689399 78.605118-167.306959A423.280206 423.280206 0 0 0 597.448723 429.004408c25.206254-31.996656 29.970201-66.588596 12.052074-103.100336-18.593612-37.933813-49.203746-59.727091-91.723747-62.962309-66.944115-5.119465-115.898998 55.034248-115.223513 105.411206 0.355518 29.401372-19.695719 47.14174-46.892877 46.217392-25.170703-0.746589-42.057827-20.904482-41.73786-49.772576A181.314383 181.314383 0 0 1 321.957515 316.411731c23.748629-82.69358 103.669165-142.9895 189.3491-142.953949zM555.07093 795.863843c0 31.072308-9.883411 46.750669-33.454282 52.93669a43.586556 43.586556 0 0 1-52.687826-30.645686 92.434784 92.434784 0 0 1 0-44.724215 44.937526 44.937526 0 0 1 45.826321-32.885451 44.510904 44.510904 0 0 1 40.457994 42.022274c0.035552 4.44398-0.142207 8.852408-0.142207 13.296388z"  /></svg>