<?xml version="1.0" standalone="no"?><!DOCTYPE svg PUBLIC "-//W3C//DTD SVG 1.1//EN" "http://www.w3.org/Graphics/SVG/1.1/DTD/svg11.dtd"><svg class="icon" width="16px" height="16.00px" viewBox="0 0 1024 1024" version="1.1" xmlns="http://www.w3.org/2000/svg"><path fill="#8a8a8a" d="M530.324211 630.74807l27.486315 46.708772 37.367018 63.41614a3.413333 3.413333 0 0 1 0 5.030176q-31.079298 30.181053-61.799298 60.901053c-1.796491 1.796491-2.694737 1.97614-4.670878 0l-62.158596-61.080702c-1.437193-1.437193-1.97614-2.515088 0-4.491228q31.977544-53.894737 63.775439-107.789474l1.437193-2.155789z"  /><path fill="#8a8a8a" d="M842.374737 826.385965a9.162105 9.162105 0 0 1-8.982456-8.802807c-2.874386-87.848421-57.487719-196.53614-156.115088-234.442105a9.341754 9.341754 0 0 1-5.569123-6.28772 8.802807 8.802807 0 0 1 2.15579-8.08421c42.037895-45.630877 60.721404-89.824561 60.541754-140.665263a181.804912 181.804912 0 0 0-72.757895-143.719299 9.162105 9.162105 0 0 1-2.694737-12.575438 8.982456 8.982456 0 0 1 12.39579-2.515088 197.614035 197.614035 0 0 1 81.021754 159.528421 211.806316 211.806316 0 0 1-56.769122 143.719298c98.447719 44.373333 152.701754 155.396491 155.755789 245.580351a8.982456 8.982456 0 0 1-8.623158 9.341755z m-566.613333 0a8.802807 8.802807 0 0 1-8.443509-9.521404 258.515088 258.515088 0 0 1 206.596491-239.112982A158.091228 158.091228 0 0 1 415.169123 538.947368a8.982456 8.982456 0 0 1 13.114386-12.395789 141.38386 141.38386 0 0 0 211.267368-8.26386 8.982456 8.982456 0 1 1 13.832983 11.317895 157.73193 157.73193 0 0 1-70.242807 49.403509 259.054035 259.054035 0 0 1 200.488421 237.136842 8.982456 8.982456 0 0 1-8.623158 9.521403 8.802807 8.802807 0 0 1-9.341755-8.443508 240.909474 240.909474 0 0 0-480.920701 0 8.982456 8.982456 0 0 1-8.982456 9.162105z m360.735438-495.292632a9.162105 9.162105 0 0 1-6.467368-2.694737 141.204211 141.204211 0 0 0-197.614035-1.257543 9.162105 9.162105 0 0 1-12.755088 0 8.982456 8.982456 0 0 1 0-12.755088 159.169123 159.169123 0 0 1 223.663158 1.616842 8.982456 8.982456 0 0 1-6.28772 15.270175z"  /><path fill="#8a8a8a" d="M591.584561 512a84.794386 84.794386 0 0 1-61.978947-26.947368 85.153684 85.153684 0 1 1 0-116.77193 85.153684 85.153684 0 1 1 61.978947 143.719298z m0-123.778246a38.804211 38.804211 0 1 0 38.624562 38.624562 38.624561 38.624561 0 0 0-38.624562-38.624562z m-123.778245 0a38.804211 38.804211 0 1 0 38.624561 38.624562A38.804211 38.804211 0 0 0 467.087719 388.221754z"  /></svg>